<svg xmlns="http://www.w3.org/2000/svg" width="100%" height="100%" viewBox="0 0 1200 300"><defs><linearGradient id="bgGrad" x1="0%" x2="100%" y1="0%" y2="100%"><stop offset="0%" stop-color="#0f172a"/><stop offset="50%" stop-color="#1e1b4b"/><stop offset="100%" stop-color="#0f172a"/></linearGradient><linearGradient id="accentCyan" x1="0%" x2="100%" y1="0%" y2="0%"><stop offset="0%" stop-color="#06b6d4" stop-opacity=".8"/><stop offset="100%" stop-color="#3b82f6" stop-opacity=".2"/></linearGradient><linearGradient id="accentPurple" x1="0%" x2="0%" y1="0%" y2="100%"><stop offset="0%" stop-color="#a855f7" stop-opacity=".6"/><stop offset="100%" stop-color="#ec4899" stop-opacity=".1"/></linearGradient><linearGradient id="bar1" x1="0%" x2="100%" y1="0%" y2="0%"><stop offset="0%" stop-color="#38bdf8"/><stop offset="100%" stop-color="#818cf8"/></linearGradient><linearGradient id="bar2" x1="0%" x2="100%" y1="0%" y2="0%"><stop offset="0%" stop-color="#c084fc"/><stop offset="100%" stop-color="#f472b6"/></linearGradient><linearGradient id="bar3" x1="0%" x2="100%" y1="0%" y2="0%"><stop offset="0%" stop-color="#34d399"/><stop offset="100%" stop-color="#2dd4bf"/></linearGradient></defs><style>@keyframes pulse{0%{opacity:.3;transform:scale(1)}50%{opacity:.6;transform:scale(1.05)}}@keyframes slide{0%{transform:translateX(0)}50%{transform:translateX(15px)}}.badge,.subtitle,.title{font-family:system-ui,-apple-system,sans-serif}.title{font-weight:800;font-size:42px;fill:#fff}.subtitle{font-weight:500;font-size:20px;fill:#94a3b8}.badge{font-weight:600;font-size:13px;fill:#38bdf8}.anim-pulse{animation:pulse 6s infinite ease-in-out;transform-origin:center}.anim-slide{animation:slide 4s infinite ease-in-out}</style><rect width="1200" height="300" fill="url(#bgGrad)" rx="16"/><circle cx="150" cy="80" r="180" fill="url(#accentPurple)" class="anim-pulse" filter="blur(40px)"/><circle cx="1050" cy="220" r="200" fill="url(#accentCyan)" class="anim-pulse" filter="blur(50px)"/><g stroke="#fff" stroke-width="1" opacity=".1"><line x1="100" x2="100" y1="0" y2="300"/><line x1="300" x2="300" y1="0" y2="300"/><line x1="500" x2="500" y1="0" y2="300"/><line x1="700" x2="700" y1="0" y2="300"/><line x1="900" x2="900" y1="0" y2="300"/><line x1="1100" x2="1100" y1="0" y2="300"/></g><g class="anim-slide" opacity=".45" transform="translate(820, 60)"><rect width="300" height="180" x="0" y="0" fill="#1e293b" stroke="#334155" stroke-width="2" rx="12"/><rect width="120" height="18" x="20" y="30" fill="url(#bar1)" rx="9"/><rect width="110" height="18" x="150" y="30" fill="url(#bar2)" rx="9"/><rect width="80" height="18" x="20" y="70" fill="url(#bar3)" rx="9"/><rect width="150" height="18" x="110" y="70" fill="url(#bar1)" rx="9"/><rect width="160" height="18" x="20" y="110" fill="url(#bar2)" rx="9"/><rect width="80" height="18" x="190" y="110" fill="url(#bar3)" rx="9"/><line x1="140" x2="140" y1="15" y2="165" stroke="#f43f5e" stroke-dasharray="4" stroke-width="2"/></g><g><g transform="translate(70, 0) translate(0, 55)"><rect width="320" height="30" x="0" y="0" fill="#0f172a" stroke="#0284c7" stroke-width="1.5" rx="15"/><text x="15" y="20" class="badge">⚡ PRODUCTION &amp; CAPACITY OPTIMIZATION</text></g><text x="0" y="140" class="title" transform="translate(70, 0)">Awesome Advanced Planning &amp; Scheduling</text><text x="0" y="182" class="subtitle" transform="translate(70, 0)">A curated ecosystem of enterprise SaaS APS platforms &amp; open-source constraint solvers</text><g transform="translate(70, 0) translate(0, 215)"><rect width="160" height="28" x="0" y="0" fill="#334155" opacity=".8" rx="6"/><text x="12" y="18" fill="#e2e8f0" font-family="sans-serif" font-size="12" font-weight="600">🏭 Finite Capacity</text><rect width="150" height="28" x="175" y="0" fill="#334155" opacity=".8" rx="6"/><text x="187" y="18" fill="#e2e8f0" font-family="sans-serif" font-size="12" font-weight="600">⚙️ Job Shop (JSSP)</text><rect width="170" height="28" x="340" y="0" fill="#334155" opacity=".8" rx="6"/><text x="352" y="18" fill="#e2e8f0" font-family="sans-serif" font-size="12" font-weight="600">🧮 Constraint Solvers</text></g></g></svg>